<?xml version="1.0" encoding="UTF-8"?>
<svg id="Layer_1" data-name="Layer 1" xmlns="http://www.w3.org/2000/svg" viewBox="0 0 729 162.86">
  <defs>
    <style>
      .cls-1 {
        fill: #fff;
      }

      .cls-2 {
        fill: #39b748;
        fill-rule: evenodd;
      }
    </style>
  </defs>
  <path class="cls-2" d="m120.07,65.16h-63.27l8.34-8.34h46.6l8.34,8.34Zm-31.63-55.21l71.88,71.88-67.71,67.71v-76.05h35.8l8.34,8.34h-35.8v47.59l47.59-47.59-60.09-60.09-60.09,60.09,47.59,47.59v-47.59h-35.8l8.34-8.34h35.8v76.05L16.56,81.83,88.44,9.95Z"/>
  <g>
    <path class="cls-1" d="m243.58,62.73c-1.52,0-4.41-.02-8.67-.05-4.26-.04-9.41-.05-15.45-.05-.07,5.67-.13,10.23-.16,13.66-.04,3.43-.05,7.88-.05,13.33,0,6.18.03,12.15.08,17.91.05,5.76.1,10.05.14,12.87h-17.94c.04-2.71.07-6.84.11-12.38.04-5.55.05-11.7.05-18.45v-12.74c0-3.5-.04-8.24-.11-14.2-5.93,0-11.22.02-15.88.05-4.66.04-7.43.05-8.29.05v-14.8c2.82,0,7.43,0,13.82.03,6.4.02,12.77.03,19.13.03,7.33,0,14.35,0,21.06-.03,6.7-.02,10.76-.03,12.17-.03v14.8Z"/>
    <path class="cls-1" d="m290.49,77.42c-2.96.9-6.29,2.04-9.97,3.41-3.69,1.37-8.47,3.4-14.36,6.07,0,.9,0,2.55-.03,4.93-.02,2.38-.03,4.81-.03,7.26,0,3.83.04,8.11.11,12.85.07,4.73.11,7.55.11,8.46h-16.64c0-1.08.03-3.79.08-8.13.05-4.34.08-10.14.08-17.4,0-3.47-.02-7.84-.05-13.12-.04-5.27-.07-10.84-.11-16.69h16.26l-.05,7.97.11.05c3.43-2.13,7.12-4.13,11.06-5.99,3.94-1.86,7.01-3.12,9.21-3.77l4.23,14.09Z"/>
    <path class="cls-1" d="m348.67,120.4h-16.21v-5.26l-.05-.05c-2.6,1.45-5.85,2.95-9.73,4.5-3.88,1.55-7.56,2.33-11.03,2.33-5.28,0-9.37-1.55-12.28-4.66-2.91-3.11-4.36-7.37-4.36-12.79,0-3.43.03-7.15.08-11.14.05-3.99.08-6.91.08-8.75,0-3.36-.04-7.22-.11-11.57-.07-4.35-.11-7-.11-7.94h16.64c0,.9-.03,3.42-.08,7.56-.05,4.14-.08,7.6-.08,10.38,0,2.2.02,4.99.05,8.35.04,3.36.05,5.82.05,7.37.04,3.18.54,5.63,1.52,7.34.98,1.72,2.73,2.57,5.26,2.57,2.31,0,4.87-.59,7.67-1.76,2.8-1.17,4.85-2.21,6.15-3.12,0-.25.02-2.08.05-5.47.04-3.4.05-7.23.05-11.49,0-3.69-.04-7.98-.11-12.87-.07-4.9-.11-7.85-.11-8.86h16.64c0,.94-.03,3.64-.08,8.1-.05,4.46-.08,10.16-.08,17.1,0,4.81.02,9.1.05,12.87.04,3.78.07,9.53.11,17.26Z"/>
    <path class="cls-1" d="m412.81,92.7h-37.61c.04,2.78.82,5.36,2.36,7.72,1.54,2.37,3.88,4.29,7.02,5.77,2.2.98,4.53,1.67,6.96,2.09,2.44.42,5.12.62,8.05.62,2.31,0,4.32-.04,6.02-.11,1.7-.07,2.94-.13,3.74-.16l-1.68,11.87c-.76.07-2.03.15-3.82.24-1.79.09-3.84.13-6.15.13-6.29,0-11.88-.7-16.77-2.09-4.9-1.39-9.06-3.5-12.49-6.31-2.89-2.38-5.22-5.33-6.99-8.83-1.77-3.5-2.66-7.37-2.66-11.6s.65-7.93,1.95-11.22c1.3-3.29,3.41-6.43,6.34-9.43,2.42-2.49,5.42-4.41,9-5.75,3.58-1.34,7.21-2.01,10.89-2.01,3.9,0,7.39.55,10.46,1.65,3.07,1.1,5.71,2.76,7.91,4.96,2.6,2.6,4.5,5.74,5.69,9.4,1.19,3.67,1.79,8.01,1.79,13.03Zm-15.56-7.26c-.33-3.54-1.42-6.36-3.28-8.46-1.86-2.1-4.42-3.14-7.67-3.14s-5.8,1.04-7.86,3.12c-2.06,2.08-3.4,4.9-4.01,8.48h22.82Z"/>
    <path class="cls-1" d="m477.39,55.47c-.58,0-3-.02-7.26-.05-4.26-.04-10.71-.05-19.35-.05-.07,7.41-.13,13.04-.16,16.87-.04,3.83-.05,9.06-.05,15.68s.03,12.83.08,19.39c.05,6.56.1,10.93.14,13.1h-8.94c.07-2.17.14-6.6.19-13.29.05-6.69.08-13.24.08-19.64v-15c0-3.71-.05-9.41-.16-17.11-7.7-.04-13.94-.03-18.73.03-4.79.05-7.42.08-7.89.08v-7.48c3.72,0,8.25.02,13.58.05,5.33.04,11.01.05,17.05.05,8.74,0,16.05-.02,21.92-.05,5.87-.04,9.04-.05,9.51-.05v7.48Z"/>
    <path class="cls-1" d="m518.34,71.95c-1.99.47-5.03,1.46-9.13,2.98-4.1,1.52-8.83,3.54-14.17,6.07,0,.4-.02,2.21-.05,5.45-.04,3.23-.05,6.24-.05,9.02,0,4.26.04,9.32.14,15.18.09,5.85.14,9.11.14,9.76h-8.56c0-.61.04-2.64.11-6.07.07-3.43.11-9.3.11-17.61,0-3.36-.02-8.06-.05-14.09-.04-6.03-.09-11.72-.16-17.07h8.4v8.24l.05.05c4.08-2.31,8.11-4.32,12.09-6.02,3.97-1.7,7.15-2.85,9.54-3.47l1.63,7.59Z"/>
    <path class="cls-1" d="m570.39,90.97h-39.19c.04,3.83.85,7.34,2.44,10.54,1.59,3.2,4.03,5.84,7.32,7.94,2.1,1.34,4.48,2.34,7.15,3.01,2.67.67,5.89,1,9.65,1,2.06,0,3.95-.05,5.66-.16,1.72-.11,2.77-.18,3.17-.22l-.98,7.21c-.29.04-1.25.1-2.87.19s-3.54.14-5.75.14c-5.78,0-10.81-.75-15.09-2.25-4.28-1.5-7.8-3.57-10.54-6.21-2.35-2.2-4.35-5.02-5.99-8.46-1.65-3.43-2.47-7.24-2.47-11.44s.61-7.84,1.84-11.17c1.23-3.32,3.07-6.41,5.53-9.27,2.13-2.46,4.78-4.35,7.94-5.69,3.16-1.34,6.44-2.01,9.84-2.01s6.34.51,8.94,1.52c2.6,1.01,4.86,2.55,6.77,4.61,2.13,2.31,3.76,5.16,4.88,8.54,1.12,3.38,1.7,7.43,1.73,12.17Zm-8.4-6.07c-.58-4.48-2.11-7.99-4.58-10.54-2.48-2.55-5.74-3.82-9.78-3.82s-7.43,1.29-10.14,3.88c-2.71,2.58-4.59,6.08-5.64,10.49h30.13Z"/>
    <path class="cls-1" d="m628.47,120.4h-8.56c.04-1.01.08-4.35.14-10.03.05-5.67.08-9.18.08-10.51,0-1.88,0-4.65-.03-8.32-.02-3.67-.05-6.35-.08-8.05-.11-4.15-.9-7.14-2.38-8.94-1.48-1.81-4.05-2.71-7.7-2.71-2.2,0-4.93.65-8.18,1.95s-6.54,2.96-9.86,4.99c0,.4-.02,2.55-.05,6.45-.04,3.9-.05,7.46-.05,10.68,0,4.19.04,9.25.14,15.18.09,5.93.14,9.03.14,9.32h-8.56c0-.25.04-2.47.11-6.64.07-4.17.11-10.38.11-18.62,0-3.79,0-8.24-.03-13.33-.02-5.09-.08-10.51-.19-16.26h8.46l-.05,6.23.05.11c5.06-2.89,9.28-4.9,12.66-6.04,3.38-1.14,6.19-1.71,8.43-1.71,4.62,0,8.34,1.46,11.14,4.36,2.8,2.91,4.2,6.89,4.2,11.95,0,4.55-.03,8.48-.08,11.79-.05,3.31-.08,5.99-.08,8.05,0,3.29.04,7.4.14,12.33.09,4.93.14,7.52.14,7.78Z"/>
    <path class="cls-1" d="m688.44,121.21c-.22,0-.9,0-2.06.03-1.16.02-2.08.03-2.76.03-6.83,0-12.18-.3-16.04-.89-3.87-.6-7.64-1.78-11.33-3.55-4.81-2.31-8.46-5.38-10.95-9.2s-3.74-8.09-3.74-12.78c0-5.49,1.39-10.35,4.17-14.59,2.78-4.24,6.79-7.55,12.03-9.94,3.07-1.44,6.59-2.54,10.57-3.28,3.97-.74,7.88-1.11,11.71-1.11l-.16-24.99h8.56c0,.72-.04,5.78-.11,15.17-.07,9.39-.11,18.9-.11,28.54,0,7.62.03,14.51.08,20.66.05,6.16.1,11.46.14,15.9Zm-8.4-38.06v-10.01c-3.61,0-7.02.31-10.22.92-3.2.61-5.94,1.44-8.21,2.49-3.61,1.66-6.41,4.03-8.4,7.12-1.99,3.08-2.98,6.7-2.98,10.85,0,3.72.96,6.91,2.87,9.58,1.91,2.67,4.3,4.76,7.15,6.28,2.49,1.34,5.3,2.34,8.43,3,3.12.67,6.4,1,9.84,1h1.41c0-.32.02-3.02.05-8.09.04-5.07.05-12.78.05-23.14Z"/>
  </g>
</svg>