<?xml version="1.0" encoding="UTF-8" standalone="no"?>
<!DOCTYPE svg PUBLIC "-//W3C//DTD SVG 1.1//EN" "http://www.w3.org/Graphics/SVG/1.1/DTD/svg11.dtd">
<svg width="100%" height="100%" viewBox="0 0 1229 332" version="1.1" xmlns="http://www.w3.org/2000/svg" xmlns:xlink="http://www.w3.org/1999/xlink" xml:space="preserve" xmlns:serif="http://www.serif.com/" style="fill-rule:evenodd;clip-rule:evenodd;stroke-linejoin:round;stroke-miterlimit:2;">
    <path d="M234.78,131.14L95.8,131.14L114.11,112.83L216.47,112.83L234.78,131.14ZM165.29,9.86L323.2,167.77L174.45,316.52L174.45,149.45L253.1,149.45L271.41,167.76L192.76,167.76L192.76,272.3L297.3,167.77L165.29,35.75L33.28,167.77L137.82,272.31L137.82,167.77L59.17,167.77L77.48,149.46L156.13,149.46L156.13,316.53L7.38,167.77L165.29,9.86Z" style="fill:white;"/>
    <g>
        <g>
            <path d="M422.57,85.65C421.82,85.65 418.68,85.63 413.15,85.58C407.62,85.53 399.25,85.51 388.05,85.51C387.96,95.13 387.88,102.42 387.84,107.4C387.79,112.37 387.77,119.15 387.77,127.74C387.77,136 387.81,144.38 387.88,152.9C387.95,161.42 388.01,167.08 388.06,169.89L376.46,169.89C376.55,167.08 376.64,161.33 376.71,152.65C376.78,143.97 376.82,135.48 376.82,127.18L376.82,107.72C376.82,102.91 376.75,95.51 376.61,85.52C366.63,85.47 358.53,85.48 352.32,85.56C346.11,85.63 342.7,85.67 342.09,85.67L342.09,75.97C346.92,75.97 352.79,75.99 359.7,76.04C366.61,76.09 373.98,76.11 381.81,76.11C393.15,76.11 402.63,76.09 410.25,76.04C417.87,75.99 421.98,75.97 422.59,75.97L422.59,85.65L422.57,85.65Z" style="fill:white;fill-rule:nonzero;"/>
            <path d="M512.26,164.26L503.46,171.5C502.43,170.42 498.78,166.35 492.5,159.29C486.22,152.23 476.55,141.22 463.48,126.25L463.55,125.62C465.33,125.15 467.7,124.13 470.65,122.56C473.6,120.99 476.09,119.29 478.11,117.46C479.84,115.86 481.36,113.9 482.65,111.55C483.94,109.2 484.58,106.06 484.58,102.12C484.58,98.51 483.63,95.4 481.73,92.8C479.83,90.2 477.22,88.28 473.89,87.06C471.17,86.03 468.31,85.41 465.31,85.19C462.31,84.98 459.54,84.87 457.01,84.87C455.32,84.87 454.03,84.88 453.14,84.91C452.25,84.93 451.59,84.95 451.17,84.95C451.08,93.86 451.02,101.72 450.99,108.52C450.97,115.32 450.95,120.13 450.95,122.95C450.95,129.38 450.99,138.1 451.06,149.13C451.13,160.15 451.19,167.07 451.24,169.89L439.64,169.89C439.69,167.08 439.76,161.63 439.85,153.54C439.94,145.45 439.99,135.39 439.99,123.34L439.99,110.33C439.99,104 439.87,92.47 439.64,75.74C440.11,75.74 442.45,75.69 446.66,75.6C450.87,75.51 454.76,75.46 458.32,75.46C462.39,75.46 466.35,75.7 470.19,76.16C474.03,76.63 477.77,77.64 481.43,79.18C486.06,81.15 489.74,84.04 492.45,87.86C495.17,91.68 496.52,96.16 496.52,101.32C496.52,107.97 494.47,113.51 490.38,117.94C486.29,122.37 482.42,125.66 478.77,127.81L478.77,128.16C485.19,135.67 492.24,143.41 499.91,151.39C507.59,159.36 511.7,163.65 512.26,164.26Z" style="fill:white;fill-rule:nonzero;"/>
            <path d="M607.63,75.74C607.63,84.74 607.58,92.18 607.49,98.06C607.4,103.94 607.35,109.06 607.35,113.42C607.35,118.76 607.36,123.32 607.39,127.1C607.41,130.87 607.43,134.14 607.43,136.91C607.43,142.35 606.62,147.14 605,151.29C603.38,155.44 600.93,159.06 597.65,162.15C594.37,165.24 590.34,167.67 585.56,169.43C580.78,171.19 575.25,172.07 568.97,172.07C562.69,172.07 557.16,171.2 552.38,169.47C547.6,167.74 543.54,165.3 540.22,162.16C536.94,159.07 534.49,155.45 532.87,151.3C531.25,147.15 530.44,142.36 530.44,136.92C530.44,134.15 530.45,130.89 530.48,127.11C530.5,123.34 530.52,118.78 530.52,113.43C530.52,109.07 530.47,103.95 530.38,98.07C530.29,92.19 530.24,84.75 530.24,75.75L541.84,75.75C541.79,76.92 541.73,80.92 541.66,87.74C541.59,94.56 541.55,103.53 541.55,114.63C541.55,118.01 541.56,121.5 541.59,125.11C541.61,128.72 541.63,132.42 541.63,136.22C541.63,144.8 544.09,151.3 549.01,155.73C553.93,160.16 560.59,162.37 568.98,162.37C578.07,162.37 584.89,160.26 589.44,156.04C593.99,151.82 596.26,145.21 596.26,136.21C596.26,132.41 596.27,128.71 596.3,125.1C596.32,121.49 596.34,118 596.34,114.62C596.34,103.51 596.29,94.42 596.2,87.34C596.11,80.26 596.06,76.4 596.06,75.74L607.63,75.74Z" style="fill:white;fill-rule:nonzero;"/>
            <path d="M699.53,169.74C699.11,169.74 695.99,169.72 690.18,169.67C684.37,169.62 677.17,169.6 668.59,169.6C662.64,169.6 657.19,169.62 652.24,169.67C647.29,169.72 643.11,169.74 639.69,169.74C639.78,167.02 639.87,161.14 639.94,152.09C640.01,143.04 640.05,133.69 640.05,124.04C640.05,118.74 640.03,111.74 639.98,103.02C639.93,94.3 639.84,85.28 639.7,75.95C643.03,75.95 647.19,75.97 652.18,76.02C657.17,76.07 662.32,76.09 667.61,76.09C676.56,76.09 683.85,76.07 689.48,76.02C695.1,75.97 698.15,75.95 698.62,75.95L698.62,85.72C698.15,85.72 695.21,85.68 689.8,85.61C684.39,85.54 677.65,85.5 669.59,85.5C666.07,85.5 662.63,85.51 659.25,85.54C655.87,85.56 653.2,85.58 651.23,85.58C651.23,90.88 651.18,96.16 651.09,101.44C651,106.71 650.95,111.69 650.95,116.38C653.06,116.38 655.56,116.39 658.44,116.42C661.32,116.44 663.89,116.46 666.14,116.46C674.39,116.46 681.76,116.42 688.25,116.35C694.74,116.28 698.2,116.24 698.62,116.24L698.62,125.94C698.24,125.94 694.38,125.9 687.02,125.83C679.66,125.76 672.93,125.72 666.84,125.72C664.59,125.72 661.91,125.73 658.79,125.76C655.67,125.78 653.06,125.8 650.95,125.8C650.95,134.66 650.97,141.69 651.02,146.89C651.07,152.09 651.11,156.45 651.16,159.97C653.93,160.02 657.28,160.05 661.21,160.08C665.15,160.1 669.39,160.12 673.94,160.12C680.92,160.12 686.79,160.1 691.55,160.05C696.31,160 698.97,159.98 699.53,159.98L699.53,169.74Z" style="fill:white;fill-rule:nonzero;"/>
            <path d="M827.64,85.65C826.89,85.65 823.75,85.63 818.22,85.58C812.69,85.53 804.32,85.51 793.12,85.51C793.03,95.13 792.95,102.42 792.91,107.4C792.86,112.37 792.84,119.15 792.84,127.74C792.84,136 792.88,144.38 792.95,152.9C793.02,161.42 793.08,167.08 793.13,169.89L781.53,169.89C781.62,167.08 781.71,161.33 781.78,152.65C781.85,143.97 781.89,135.48 781.89,127.18L781.89,107.72C781.89,102.91 781.82,95.51 781.68,85.52C771.7,85.47 763.6,85.48 757.39,85.56C751.18,85.63 747.77,85.67 747.16,85.67L747.16,75.97C751.99,75.97 757.86,75.99 764.77,76.04C771.68,76.09 779.05,76.11 786.88,76.11C798.22,76.11 807.7,76.09 815.32,76.04C822.94,75.99 827.05,75.97 827.66,75.97L827.66,85.65L827.64,85.65Z" style="fill:white;fill-rule:nonzero;"/>
            <path d="M917.33,164.26L908.53,171.5C907.5,170.42 903.85,166.35 897.57,159.29C891.29,152.23 881.62,141.22 868.55,126.25L868.62,125.62C870.4,125.15 872.77,124.13 875.72,122.56C878.67,120.99 881.16,119.29 883.18,117.46C884.91,115.86 886.43,113.9 887.72,111.55C889.01,109.2 889.65,106.06 889.65,102.12C889.65,98.51 888.7,95.4 886.8,92.8C884.9,90.2 882.29,88.28 878.96,87.06C876.24,86.03 873.38,85.41 870.38,85.19C867.38,84.98 864.61,84.87 862.08,84.87C860.39,84.87 859.1,84.88 858.21,84.91C857.32,84.93 856.66,84.95 856.24,84.95C856.15,93.86 856.09,101.72 856.06,108.52C856.04,115.32 856.02,120.13 856.02,122.95C856.02,129.38 856.06,138.1 856.13,149.13C856.2,160.15 856.26,167.07 856.31,169.89L844.71,169.89C844.76,167.08 844.83,161.63 844.92,153.54C845.01,145.45 845.06,135.39 845.06,123.34L845.06,110.33C845.06,104 844.94,92.47 844.71,75.74C845.18,75.74 847.52,75.69 851.73,75.6C855.94,75.51 859.83,75.46 863.39,75.46C867.46,75.46 871.42,75.7 875.26,76.16C879.1,76.63 882.84,77.64 886.5,79.18C891.13,81.15 894.81,84.04 897.52,87.86C900.24,91.68 901.59,96.16 901.59,101.32C901.59,107.97 899.54,113.51 895.45,117.94C891.36,122.37 887.49,125.66 883.84,127.81L883.84,128.16C890.26,135.67 897.31,143.41 904.98,151.39C912.66,159.36 916.77,163.65 917.33,164.26Z" style="fill:white;fill-rule:nonzero;"/>
            <path d="M995.83,169.74C995.41,169.74 992.29,169.72 986.48,169.67C980.67,169.62 973.47,169.6 964.89,169.6C958.94,169.6 953.49,169.62 948.54,169.67C943.59,169.72 939.41,169.74 935.99,169.74C936.08,167.02 936.17,161.14 936.24,152.09C936.31,143.04 936.35,133.69 936.35,124.04C936.35,118.74 936.33,111.74 936.28,103.02C936.23,94.3 936.14,85.28 936,75.95C939.33,75.95 943.49,75.97 948.48,76.02C953.47,76.07 958.62,76.09 963.91,76.09C972.86,76.09 980.15,76.07 985.78,76.02C991.4,75.97 994.45,75.95 994.92,75.95L994.92,85.72C994.45,85.72 991.51,85.68 986.1,85.61C980.69,85.54 973.95,85.5 965.89,85.5C962.37,85.5 958.93,85.51 955.55,85.54C952.17,85.56 949.5,85.58 947.53,85.58C947.53,90.88 947.48,96.16 947.39,101.44C947.3,106.71 947.25,111.69 947.25,116.38C949.36,116.38 951.86,116.39 954.74,116.42C957.62,116.44 960.19,116.46 962.44,116.46C970.69,116.46 978.06,116.42 984.55,116.35C991.04,116.28 994.5,116.24 994.92,116.24L994.92,125.94C994.54,125.94 990.68,125.9 983.32,125.83C975.96,125.76 969.23,125.72 963.14,125.72C960.89,125.72 958.21,125.73 955.09,125.76C951.97,125.78 949.36,125.8 947.25,125.8C947.25,134.66 947.27,141.69 947.32,146.89C947.37,152.09 947.41,156.45 947.46,159.97C950.23,160.02 953.58,160.05 957.51,160.08C961.45,160.1 965.69,160.12 970.24,160.12C977.22,160.12 983.1,160.1 987.85,160.05C992.61,160 995.27,159.98 995.83,159.98L995.83,169.74Z" style="fill:white;fill-rule:nonzero;"/>
            <path d="M1103.97,75.74C1103.88,83.1 1103.79,91.51 1103.72,100.98C1103.65,110.45 1103.61,117.27 1103.61,121.44C1103.61,134.75 1103.66,145.34 1103.75,153.19C1103.84,161.04 1103.89,165.23 1103.89,165.74L1094.54,170.31C1080.38,151.19 1067.15,133.93 1054.85,118.53C1042.55,103.13 1035.43,94.24 1033.51,91.85L1033.37,91.92C1033.37,104.48 1033.45,119.91 1033.62,138.21C1033.78,156.51 1033.89,167.07 1033.94,169.88L1022.97,169.88C1023.02,168.71 1023.09,164.54 1023.18,157.36C1023.27,150.19 1023.32,140.2 1023.32,127.41C1023.32,122.3 1023.3,115.52 1023.25,107.05C1023.2,98.59 1023.11,89.62 1022.97,80.16L1033.66,75.1C1034.5,76.18 1041.69,85.29 1055.21,102.43C1068.73,119.58 1081.47,135.5 1093.42,150.21L1093.56,150.14C1093.56,142.93 1093.47,130.78 1093.28,113.71C1093.09,96.64 1093,83.98 1093,75.73L1103.97,75.73L1103.97,75.74Z" style="fill:white;fill-rule:nonzero;"/>
            <path d="M1215.48,123.34C1215.48,131.59 1213.45,138.83 1209.4,145.07C1205.35,151.3 1200.09,156.32 1193.63,160.12C1188.01,163.45 1181.75,165.98 1174.84,167.71C1167.93,169.44 1160.17,170.31 1151.55,170.31C1148.27,170.31 1145.06,170.26 1141.93,170.17C1138.79,170.08 1137.06,170.03 1136.73,170.03C1136.73,169.8 1136.79,164.39 1136.91,153.82C1137.03,143.25 1137.09,133.23 1137.09,123.76C1137.09,118.74 1137.08,112.3 1137.05,104.42C1137.03,96.54 1136.92,86.98 1136.73,75.73C1137.2,75.73 1139.34,75.71 1143.16,75.66C1146.98,75.61 1149.03,75.59 1149.31,75.59C1159,75.59 1167.61,76.46 1175.13,78.19C1182.65,79.92 1189.36,82.67 1195.26,86.42C1202.1,90.78 1207.18,96.02 1210.5,102.13C1213.82,108.24 1215.48,115.32 1215.48,123.34ZM1203.53,123.27C1203.53,117.18 1202.22,111.65 1199.6,106.68C1196.98,101.71 1192.84,97.45 1187.17,93.88C1181.88,90.55 1176.02,88.23 1169.58,86.92C1163.14,85.61 1157.3,84.95 1152.06,84.95L1148.41,84.95C1148.32,92.36 1148.26,98.5 1148.23,103.37C1148.21,108.25 1148.19,112.14 1148.19,115.04C1148.19,117.1 1148.2,121.92 1148.23,129.49C1148.25,137.06 1148.29,147.55 1148.34,160.95L1151.92,160.95C1158,160.95 1164.11,160.24 1170.25,158.81C1176.38,157.38 1181.56,155.4 1185.77,152.87C1191.11,149.68 1195.4,145.64 1198.65,140.74C1201.9,135.84 1203.53,130.02 1203.53,123.27Z" style="fill:white;fill-rule:nonzero;"/>
        </g>
    </g>
    <g transform="matrix(1,0,0,1,366.087,265.116)">
        <text x="0px" y="0px" style="font-family:'ArialMT', 'Arial', sans-serif;font-size:72px;fill:white;">Precision <tspan x="314.824px 356.133px 380.109px " y="0px 0px 0px ">Tra</tspan>ding System</text>
    </g>
</svg>
